<?xml version="1.0" encoding="UTF-8"?>
<svg id="Layer_2" data-name="Layer 2" xmlns="http://www.w3.org/2000/svg" viewBox="0 0 262.2 57.94">
  <g id="Layer_1-2" data-name="Layer 1">
    <g>
      <path d="M25.38,14.99h-.36l-.78-2.34c-.54-1.8-1.32-4.08-3.12-5.64-1.32-1.32-2.88-1.98-4.56-2.04h-1.92v37.74c0,1.2,1.2,2.52,5.1,2.52v.66H5.7v-.66c3.84,0,5.04-1.32,5.04-2.52V4.97h-1.92c-1.68.06-3.18.72-4.5,2.04-1.8,1.56-2.58,3.48-3.3,5.76l-.6,2.22h-.42L.54,4.13l.36-.54c.06-.18.36-.24.78-.24h.12c.36,0,.6.06.66.12.42.36,1.02.54,3.66.54h13.14c2.64,0,3.3-.18,3.66-.54.12-.06.3-.12.66-.12h.12c.42,0,.72.06.84.24l.3.54.54,10.86Z"/>
      <path d="M51.66,45.88h-10.74v-.66c2.82,0,3.24-1.08,3.24-3v-18.54c0-3.12-.9-5.46-4.14-5.46-4.14,0-6.72,3.96-6.72,8.16v15.84c0,2.28.78,3,4.14,3v.66h-11.28v-.66c2.82,0,3.36-1.08,3.36-3V6.65c0-.36-.12-.72-.3-.72h-2.82v-.66c3.42,0,6.18-.66,6.48-2.22h.42v16.14c0,.9.06,1.2.12,1.2l.36-.3c2.1-2.22,5.28-4.08,8.34-4.08,4.38,0,5.82,3.6,5.82,7.08v19.14c0,1.92.96,3,3.72,3v.66Z"/>
      <path d="M71.16,36.77c-.54,4.14-2.58,9.66-7.98,9.66-7.32,0-9.84-9.06-9.84-14.94s2.76-15.48,10.14-15.48c6.48,0,7.62,7.2,7.62,11.88,0,.84-.12,1.74-1.38,1.74h-12.12c-.18,0-.3.3-.3.72v.84c0,3,.12,6.6,1.74,9.42.18.3.42.6.6.9l.06.12c1.14,1.32,2.34,2.28,4.2,2.28,3.9,0,6.3-3.84,6.84-7.14h.42ZM57.48,27.83c0,.48.12.78.24.78h9.36c.12,0,.24-.3.24-.72.06-.72.06-1.44.06-2.16,0-4.98-1.08-8.64-3.96-8.7-4.14,0-5.76,5.82-5.94,10.8Z"/>
      <path d="M174.83,7.49c-1.32,1.08-3.06,1.44-4.8,1.44-3.84,0-7.08-1.5-10.08-3.84-3.54,2.1-6.78,4.8-9.54,7.02-12.06,10.02-21.96,22.38-34.02,32.4-1.62,1.26-3.3,2.52-5.22,3.36-.24.12-.54-.06-.54-.36,0-.06,0-.18.12-.24,1.68-1.74,3.36-3.48,4.98-5.28,4.92-5.58,9.06-11.64,12.78-18.06,3.12-5.22,5.94-10.86,9.72-15.72-13.2,11.28-24.54,24.66-38.34,35.22-2.34,1.68-4.74,3.36-7.44,4.44-.24.12-.54-.06-.54-.36,0-.06.06-.18.12-.24,3.6-3.6,7.02-7.26,10.14-11.22,5.52-6.72,10.44-14.76,15.42-21.96,3.48-4.92,7.44-9.96,12.9-12.78-5.82.66-11.52,5.1-16.08,8.34-2.82,2.1-5.76,4.32-8.7,6.36,1.86,3.66.78,7.92-1.86,11.04-.18.24-.48.24-.72.12-.3-.18-.42-.6-.18-.9,1.32-1.44,2.64-3.06,2.94-4.92.36-1.8,0-3.48-.78-4.98-4.68,3.42-12.9,7.62-18.48,7.62-2.88,0-6.06-1.14-7.26-3.96-1.5-3.48,1.08-7.32,4.14-8.88,2.58-1.44,5.94-1.98,8.94-1.98,4.68,0,9.6,1.62,12.48,5.58,8.46-5.88,18.18-13.26,26.28-13.92.12,0,.24.06.36.12.18.18.18.48-.06.66-6.78,5.46-10.68,13.62-15.42,20.76-5.1,8.1-11.22,15.9-18.78,21.9.72-.48,1.38-1.02,2.1-1.5,2.4-1.8,4.68-3.78,6.96-5.82,9.06-8.1,17.58-16.74,26.52-25.02,3.18-2.94,6.42-5.88,9.96-8.52.96-.72,1.92-1.38,3-1.98.3-.18.66-.36.96-.54.24-.12.54,0,.6.3,0,.18-.06.3-.18.36-5.64,4.5-8.76,11.34-12.06,17.58-3.72,7.2-8.16,14.22-13.8,20.16,3.18-2.94,6.18-6.06,9.18-9.12,6.3-6.36,12.54-12.78,19.38-18.6,3-2.52,6.12-4.92,9.48-6.9-1.32-1.08-2.46-2.34-3.54-3.66-.24-.24-.18-.6.06-.84.3-.3.84-.18.96.24.6,1.56,1.8,2.94,3,3.96.36-.18.72-.36,1.08-.6,2.46-1.26,5.94-2.58,9.12-2.58,1.5,0,2.94.3,4.14,1.02,1.86,1.2,2.4,3.84.6,5.28ZM104.4,15.11c-2.7-3.78-7.62-5.34-12.12-5.34-4.08,0-8.28,1.26-10.74,4.14-2.22,2.46-2.28,6.24.66,8.16,1.44.9,2.94,1.26,4.5,1.26,5.46,0,13.2-5.1,17.7-8.22ZM170.69,2.09c-3.42-.36-6.96.84-10.2,2.7,2.46,1.98,5.82,3.42,9,3.42,1.14,0,2.28-.24,3.3-.72,3.6-1.98,1.02-5.1-2.1-5.4Z"/>
      <path d="M150.96,44.38h.06c-1.92.9-3.24,1.26-4.32,1.26-.48,0-.9-.06-1.26-.24-1.44-.54-1.56-2.34-.36-4.38-3.24,2.58-6.96,4.86-9.72,4.86s-3.36-2.58-2.52-5.1c.96-2.76,2.7-5.1,4.62-7.32,3.6-4.08,9.42-9.72,15.24-9.72,1.5,0,3.42.66,3.36,2.76,0,.3-.06.6-.12.9,1.56-1.98,2.7-3.42,2.7-3.42.48.06,1.2.12,1.86.12s1.32-.06,1.62-.12c0,0-11.1,13.8-13.86,17.28-2.28,2.82-1.56,3.48-.6,3.48.66,0,1.74-.3,2.28-.6,4.62-1.8,8.94-6.06,13.44-11.1h.78c-4.32,5.16-8.64,9.3-13.2,11.34ZM147.9,37.43c.66-.72,1.26-1.5,1.92-2.28.18-.24.3-.42.48-.66.54-.66,1.2-1.44,1.8-2.22l2.52-3.24c.48-.9.72-1.8.72-2.76,0-1.56-1.92-1.62-3.12-1.44-4.74.96-12.24,9.24-15.3,13.32-1.2,1.5-2.34,3.12-2.82,4.86-.36,1.2.36,2.04,1.5,2.16,2.82.12,6.6-2.46,8.94-4.2.72-.6,1.38-1.2,1.98-1.8l1.38-1.74Z"/>
      <path d="M177.3,33.05h.78c-4.14,5.16-10.56,9.3-15.12,11.34h.06c-1.92.9-3.24,1.26-4.32,1.26-.48,0-.9-.06-1.26-.24-1.8-.66-1.44-3.18.84-6,1.98-2.46,20.46-25.68,30-37.74h3.6c-9.96,12.42-29.58,37.02-31.62,39.6-2.28,2.82-1.56,3.48-.6,3.48.66,0,1.74-.3,2.28-.6,4.62-1.8,10.98-5.88,15.36-11.1Z"/>
      <path d="M199.26,33.05h.78c-6.12,7.68-11.7,12.36-15.66,12.78h-1.44c-3.06-.18-3.12-3-2.16-4.56.9-1.44,2.64-2.82,1.8-4.26-.3-.48-.66-.84-1.14-1.08l.36-.48c7.5-1.86,12.12-8.28,12.9-9.84.72-1.32-.18-1.68-1.44-1.5h.12c-.12,0-.18,0-.3.06.06-.06.12-.06.18-.06l-.54.12c-.24.06-.48.18-.78.24-5.82,2.22-12.12,9.72-13.92,12-2.58,3.24-5.88,7.32-7.5,9.36h-3.36L202.2,1.67h3.3c-5.88,7.38-15.36,19.14-23.82,29.7,2.76-2.82,8.46-7.98,12.72-7.98.42,0,.84.06,1.14.18v.06h.12c2.46,1.26.66,5.4-2.58,8.1-2.46,1.98-7.32,4.44-10.32,4.32,1.14.36,2.58,1.38,2.64,2.7.12,1.44-1.5,3.12-2.58,4.26-1.02,1.14-1.14,1.98,0,2.16.48.06,1.02.06,1.5,0,3.66-.36,8.82-5.1,14.94-12.12Z"/>
      <path d="M239.64,4.01v.66c-2.76,0-4.02,1.08-4.02,3v27.18c0,6.18-3.36,11.58-10.38,11.58s-10.62-5.46-10.62-11.58V7.91c0-1.92-1.02-3.24-3.84-3.24v-.66h11.64v.66c-2.76,0-3.84,1.32-3.84,3.24v27c0,5.28,2.1,9.66,7.68,9.66s7.74-4.32,7.74-9.66V7.67c0-1.92-1.26-3-4.02-3v-.66h9.66Z"/>
      <path d="M262.2,29.99c0,7.08-3.3,16.44-11.7,16.44-1.2,0-2.34-.3-3.42-.72l-.3-.12c-.24,0-.48.24-.54.9l-.06.18v7.62c0,2.34,1.26,3,4.56,3v.66h-11.58v-.66c2.82,0,3.24-1.08,3.24-3V20.75c0-.42-.18-.78-.3-.78h-2.82v-.66c2.22,0,5.16-1.2,6.18-2.94h.42v1.38c0,.78.12,1.32.42,1.44l.12.06h.12c.24,0,.78-.48,1.5-1.08,1.62-1.38,2.7-2.16,4.98-2.16,6.9,0,9.18,8.52,9.18,13.98ZM258.05,30.83c0-4.92-.84-12.66-6.84-12.66-2.28,0-3.78,1.92-4.56,3.96-.24.78-.42,1.74-.42,2.94v14.4c0,.6.06,2.1.6,3.36.84,1.68,1.8,2.58,3.84,2.58,1.74,0,3.06-.84,3.84-1.68,3.12-3.72,3.54-8.16,3.54-12.9Z"/>
    </g>
  </g>
</svg>