<?xml version="1.0" encoding="UTF-8"?>
<svg id="Layer_2" data-name="Layer 2" xmlns="http://www.w3.org/2000/svg" viewBox="0 0 41.87 40">
  <defs>
    <style>
      .cls-1 {
        fill: #edebde;
      }
    </style>
  </defs>
  <g id="Layer_1-2" data-name="Layer 1">
    <g>
      <path class="cls-1" d="M8.7,2.6c.2-.63.41-1.16.91-1.59.36-.36.78-.55,1.24-.56h.53v10.41c0,.33-.33.69-1.39.69v.18h3.87v-.18c-1.08,0-1.41-.36-1.41-.69V.45h.53c.46.02.89.2,1.26.56.5.43.71,1.06.86,1.56l.22.65h.1l-.15-2.99-.08-.15s-.12-.07-.23-.07h-.03c-.1,0-.15.02-.18.03-.1.1-.28.15-1.01.15h-3.62c-.73,0-.89-.05-1.01-.15-.02-.02-.08-.03-.18-.03h-.03c-.12,0-.2.02-.22.07l-.1.15-.15,2.99h.12l.17-.61Z"/>
      <path class="cls-1" d="M19.62,14.15c-1.25,1.61-2.18,3.47-3.22,5.2-1.23,2.12-2.6,4.13-4.23,5.97-.54.6-1.09,1.17-1.65,1.75-.04.02-.04.06-.04.08,0,.1.1.16.18.12.64-.28,1.19-.69,1.73-1.11,3.99-3.31,7.27-7.4,11.25-10.72.91-.73,1.99-1.63,3.16-2.32.99.77,2.06,1.27,3.33,1.27.58,0,1.15-.12,1.59-.48.6-.48.42-1.35-.2-1.75-.4-.24-.87-.34-1.37-.34-1.05,0-2.2.44-3.02.85-.12.08-.24.14-.36.2-.36-.3-.7-.7-.92-1.15h4.27l.18-3.21h-.1c-.25,2.68-1.74,2.93-2.68,2.93h-1.34s-.08-.08-.08-.2v-5.13c0-.12.03-.2.08-.2h.99c.56,0,1.26.25,1.32,1.8h.1v-3.82h-.1c-.08,1.37-.76,1.67-1.32,1.67h-.99s-.08-.1-.08-.22V.66c0-.12.03-.22.08-.22h1.09c.93,0,2.43.26,2.66,2.93h.12l-.18-3.19h-5.92v.18c.78,0,1.06.36,1.06.89v9.4c0,.53-.28.89-1.06.89v.18h1.46s.01.03.03.04c.36.44.73.85,1.17,1.21-1.11.66-2.14,1.45-3.14,2.28-2.26,1.93-4.33,4.05-6.41,6.15-.99,1.01-1.99,2.04-3.04,3.02,1.87-1.97,3.33-4.29,4.57-6.67,1.09-2.06,2.12-4.33,3.99-5.82.04-.02.06-.06.06-.12,0-.05-.04-.08-.07-.1h1.08v-.18c-.76,0-1.04-.36-1.04-.89V1.26c0-.53.28-.89,1.04-.89v-.18h-3.16v.18c.78,0,1.04.36,1.04.89v4.1c0,.12-.03.22-.07.22h-3.57s-.08-.1-.08-.22V1.26c0-.53.28-.89,1.06-.89v-.18h-3.19v.18c.78,0,1.06.36,1.06.89v9.4c0,.53-.28.89-1.06.89v.18h1.46c-2.65.29-5.8,2.68-8.55,4.59-.95-1.31-2.58-1.85-4.13-1.85-.99,0-2.1.18-2.96.66-1.01.52-1.87,1.79-1.37,2.94.4.93,1.45,1.31,2.4,1.31,1.85,0,4.57-1.39,6.11-2.52.26.5.38,1.05.26,1.65-.1.62-.54,1.15-.97,1.63-.08.1-.04.24.06.3.08.04.18.04.24-.04.87-1.03,1.23-2.44.62-3.65.97-.67,1.95-1.41,2.88-2.1,1.51-1.07,3.39-2.54,5.32-2.76-1.81.93-3.12,2.6-4.27,4.23-1.65,2.38-3.28,5.04-5.1,7.27-1.03,1.31-2.16,2.52-3.35,3.71-.02.02-.04.06-.04.08,0,.1.1.16.18.12.89-.36,1.69-.91,2.46-1.47,4.57-3.49,8.32-7.92,12.68-11.65ZM30.36,12.13c1.03.1,1.89,1.13.69,1.79-.34.16-.71.24-1.09.24-1.05,0-2.16-.48-2.98-1.13,1.07-.62,2.24-1.01,3.37-.89ZM2.57,19.15c-.52,0-1.01-.12-1.49-.42-.97-.64-.95-1.89-.22-2.7.81-.95,2.2-1.37,3.55-1.37,1.49,0,3.12.52,4.01,1.77-1.49,1.03-4.05,2.72-5.86,2.72ZM6.08,26.08c2.5-1.98,4.53-4.57,6.21-7.25,1.57-2.36,2.86-5.06,5.1-6.87.08-.06.08-.16.02-.22-.01,0-.03-.01-.04-.02h1.51v-.18c-.78,0-1.06-.36-1.06-.89v-4.53c0-.12.05-.2.08-.2h3.57s.07.08.07.2v4.53c0,.53-.26.89-1.04.89v.18h1.96s0,0,0,0c-.1.06-.22.12-.32.18-.36.2-.67.42-.99.65-1.17.87-2.24,1.85-3.3,2.82-2.96,2.74-5.78,5.6-8.77,8.28-.75.67-1.51,1.33-2.3,1.93-.24.16-.46.34-.69.5Z"/>
      <path class="cls-1" d="M40.78,11.99l-8.24,10.38h0c-1.45,1.73-3.55,3.08-5.08,3.67-.18.1-.54.2-.75.2-.32,0-.56-.22.2-1.15.67-.85,7.17-8.99,10.46-13.1h-1.19c-2.28,2.89-6.12,7.71-8.31,10.46-1.46,1.63-2.87,3.01-4.37,3.59-.18.1-.54.2-.75.2-.32,0-.56-.22.2-1.15.91-1.15,4.59-5.72,4.59-5.72-.1.02-.32.04-.54.04s-.46-.02-.62-.04c0,0-.38.48-.89,1.13.02-.1.04-.2.04-.3.02-.69-.62-.91-1.11-.91-1.93,0-3.85,1.87-5.04,3.22-.64.73-1.21,1.51-1.53,2.42-.28.83-.1,1.69.83,1.69s2.14-.75,3.22-1.61c-.4.67-.36,1.27.12,1.45.12.06.26.08.42.08.36,0,.79-.12,1.43-.42h-.02c.87-.39,1.7-1.01,2.53-1.79-.04.06-.08.11-.11.14-.75.93-.87,1.77-.28,1.98.12.06.26.08.42.08.36,0,.79-.12,1.43-.42h-.02c1.07-.48,2.43-1.3,3.63-2.35l-2.24,2.82h1.11c.54-.67,1.63-2.02,2.48-3.1.6-.75,2.68-3.24,4.61-3.97.1-.02.18-.06.26-.08l.14-.03s-.01,0-.02.01c.04-.02.06-.02.1-.02h-.04c.42-.06.71.06.48.5-.26.52-1.79,2.64-4.27,3.26l-.12.16c.16.08.28.2.38.36.28.48-.3.93-.6,1.41-.32.52-.3,1.45.71,1.51h.48c1.31-.14,3.16-1.69,5.18-4.23h-.26c-2.02,2.32-3.73,3.89-4.94,4.01-.16.02-.34.02-.5,0-.38-.06-.34-.34,0-.71.36-.38.89-.93.85-1.41-.02-.44-.5-.77-.87-.89.99.04,2.6-.77,3.41-1.43,1.07-.89,1.67-2.26.85-2.68h-.04v-.02c-.1-.04-.24-.06-.38-.06-1.41,0-3.3,1.71-4.21,2.64,2.8-3.49,5.94-7.38,7.88-9.83h-1.09ZM22.36,24.39c-.2.2-.42.4-.66.6-.77.58-2.02,1.43-2.96,1.39-.38-.04-.62-.32-.5-.71.16-.58.54-1.11.93-1.61,1.01-1.35,3.49-4.09,5.06-4.41.4-.06,1.03-.04,1.03.48,0,.32-.08.62-.24.91l-.83,1.07c-.2.26-.42.52-.6.73-.06.08-.1.14-.16.22-.22.26-.42.52-.64.75l-.46.58Z"/>
      <path class="cls-1" d="M16.07,40c1.94,0,2.86-1.49,2.86-3.19v-7.49c0-.53.35-.83,1.11-.83v-.18h-2.66v.18c.76,0,1.11.3,1.11.83v7.51c0,1.47-.6,2.66-2.13,2.66s-2.12-1.21-2.12-2.66v-7.44c0-.53.3-.89,1.06-.89v-.18h-3.21v.18c.78,0,1.06.36,1.06.89v7.43c0,1.69,1.08,3.19,2.93,3.19Z"/>
      <path class="cls-1" d="M23.78,28.3h-3.51v.18c.78,0,1.06.3,1.06.83v9.55c0,.53-.28.81-1.06.81v.18h3.56v-.18c-1.13,0-1.42-.18-1.42-.99v-3.92c0-.1.05-.2.08-.2h1.06c.26,0,.48,0,.69-.03h-.02c1.67-.13,2.75-1.47,2.75-3.04,0-1.79-1.22-3.18-3.19-3.18ZM23.53,34.29h-1.04s-.08-.1-.08-.22v-5.29c0-.12.05-.22.08-.22h.94c1.67,0,2.4,1.26,2.4,2.86s-.68,2.86-2.3,2.86Z"/>
    </g>
  </g>
</svg>